PathFileType	4	(X/Y/Z)	E:\Qualisys_Data\Carbon_Farble_Plate\Data\Amateur_Runner\S2\T2\S2T2V11_c3d.trc
DataRate	CameraRate	NumFrames	NumMarkers	Units	OrigDataRate	OrigDataStartFrame	OrigNumFrames
200.000000	200.000000	4	39	mm	200.000000	244	326
Frame#	Time	LSHO			RSHO			LICST			RICST			LASIS			LHEEL			RASIS			LTROC			RTROC			SACR			LTH1			LSK4			LTH2			LTH3			RHM5			LSK2			LTH4			RTH1			LTOE			RTH2			RTH3			RTH4			LLEP			RLEP			LSK1			LSK3			RSK1			LHM5			RSK2			LFT1			RSK3			RSK4			LLME			RLME			RTOE			RHEEL			RFT1			RFT2			LFT2			
		X1	Y1	Z1	X2	Y2	Z2	X3	Y3	Z3	X4	Y4	Z4	X5	Y5	Z5	X6	Y6	Z6	X7	Y7	Z7	X8	Y8	Z8	X9	Y9	Z9	X10	Y10	Z10	X11	Y11	Z11	X12	Y12	Z12	X13	Y13	Z13	X14	Y14	Z14	X15	Y15	Z15	X16	Y16	Z16	X17	Y17	Z17	X18	Y18	Z18	X19	Y19	Z19	X20	Y20	Z20	X21	Y21	Z21	X22	Y22	Z22	X23	Y23	Z23	X24	Y24	Z24	X25	Y25	Z25	X26	Y26	Z26	X27	Y27	Z27	X28	Y28	Z28	X29	Y29	Z29	X30	Y30	Z30	X31	Y31	Z31	X32	Y32	Z32	X33	Y33	Z33	X34	Y34	Z34	X35	Y35	Z35	X36	Y36	Z36	X37	Y37	Z37	X38	Y38	Z38	X39	Y39	Z39	

245	1.22	1163.272216796875	1474.713623046875	-531.4666748046875	1248.859130859375	1459.186279296875	-239.357421875	1180.174194335938	1007.953979492188	-514.3270874023438	1230.95654296875	1000.934143066406	-218.663330078125	1243.684448242188	963.631591796875	-502.4194946289062	1293.21240234375	75.34564208984375	-372.8944396972656	1286.0986328125	954.0773315429688	-248.4346466064453	1127.406982421875	875.8926391601562	-514.9190673828125	1138.000122070312	904.1863403320312	-198.0189361572266	1109.062133789062	1041.551513671875	-350.7399597167969	1305.260986328125	672.7299194335938	-527.7852783203125	1276.12255859375	274.9140625	-477.6042785644531	1225.332885742188	649.2487182617188	-518.3328857421875	1336.627685546875	578.9110107421875	-495.5854797363281	680.8377075195312	257.6904296875	-210.1200561523438	1269.466674804688	372.1737976074219	-494.4990844726562	1254.677368164062	557.3560180664062	-488.294189453125	1214.501831054688	638.7484741210938	-199.7248840332031	1526.926513671875	144.5717926025391	-428.2990112304688	1139.854370117188	654.9482421875	-192.7257995605469	1193.573486328125	540.3334350585938	-206.0428771972656	1115.469848632812	559.5225219726562	-208.6427459716797	1305.79248046875	510.0987548828125	-485.8905334472656	1126.254272460938	512.9454345703125	-201.1641235351562	1347.258178710938	379.3849487304688	-487.4884338378906	1355.678100585938	280.8592529296875	-474.2866516113281	1039.48876953125	433.623779296875	-193.971923828125	1475.245239257812	98.08932495117188	-475.6773376464844	1011.66845703125	508.4934692382812	-195.4949493408203	1315.61474609375	54.52958297729492	-350.4605102539062	944.1486206054688	397.2883911132812	-198.3621978759766	919.2694091796876	472.5983276367188	-204.6638793945312	1344.171142578125	97.04031372070312	-441.5797729492188	754.1461791992188	368.2090454101562	-227.9605712890625	703.2232055664062	179.7109375	-256.157470703125	763.2113037109375	421.6275329589844	-288.8699340820312	741.2154541015625	405.6715698242188	-326.4443359375	727.4979248046875	427.2515258789062	-274.6583251953125	1305.093383789062	42.19966888427734	-402.7104187011719
246	1.225	1179.651977539062	1469.4580078125	-532.9690551757812	1264.284912109375	1454.750854492188	-239.96875	1195.30908203125	1003.714416503906	-514.7255249023438	1246.839111328125	996.2007446289062	-218.85595703125	1258.93115234375	959.5413208007812	-502.8885803222656	1301.800903320312	73.23568725585938	-372.5577392578125	1301.654663085938	949.6134643554688	-248.4759063720703	1143.4228515625	871.19482421875	-512.794189453125	1154.409790039062	898.3204345703125	-197.9433135986328	1124.693725585938	1036.5732421875	-350.9927978515625	1322.139404296875	670.0244140625	-525.0012817382812	1289.501831054688	270.9061584472656	-476.7744140625	1242.618286132812	646.7868041992188	-516.0132446289062	1353.27734375	576.1094360351562	-493.2488708496094	699.75390625	263.0785217285156	-209.9729461669922	1283.869995117188	368.4458923339844	-493.4642028808594	1271.424194335938	554.24365234375	-487.6058349609375	1234.75830078125	633.9760131835938	-198.9982299804688	1537.40869140625	136.0147552490234	-425.9242248535156	1159.626831054688	649.1043701171875	-192.8085784912109	1215.536499023438	535.0966186523438	-204.8701477050781	1136.885131835938	553.3705444335938	-207.7845001220703	1322.116455078125	506.5334167480469	-484.8613891601562	1148.757202148438	507.2889404296875	-200.2445831298828	1361.614501953125	374.3208618164062	-486.5684814453125	1368.681640625	275.8316955566406	-473.0067749023438	1061.396484375	429.8572692871094	-193.426025390625	1485.175170898438	90.91390228271484	-472.7142639160156	1035.013061523438	505.1960144042969	-195.4700164794922	1323.102416992188	53.78989791870117	-349.4703674316406	964.9754638671876	395.5327453613281	-199.0857696533203	941.9407958984376	471.6543579101562	-205.1790313720703	1354.4521484375	92.42344665527344	-440.6226501464844	774.3239135742188	371.731689453125	-229.2575225830078	720.89697265625	184.2777252197266	-255.2091979980469	785.2666015625	424.4207763671875	-290.8139038085938	762.879638671875	408.037109375	-328.003662109375	749.3532104492188	430.6916198730469	-276.4389953613281	1312.573852539062	40.04512786865234	-402.0046081542969
247	1.23	1196.1806640625	1463.840209960938	-534.206298828125	1279.870483398438	1449.803100585938	-240.4182434082031	1210.305053710938	999.0108642578124	-514.8518676757812	1262.334350585938	990.9320678710938	-219.0473785400391	1274.390869140625	955.3104858398438	-503.2523498535156	1310.319946289062	72.1939468383789	-369.9198608398438	1317.5107421875	944.8680419921876	-249.1128845214844	1159.045532226562	866.360107421875	-512.6074829101562	1170.822143554688	892.4173583984375	-197.7949981689453	1140.211669921875	1031.7431640625	-351.1489868164062	1338.975341796875	667.2100830078125	-522.0177001953125	1302.591552734375	266.5029907226562	-475.9925231933594	1260.009887695312	644.0126953125	-514.1393432617188	1370.118774414062	572.6217041015625	-490.9588317871094	719.1152954101562	267.8065490722656	-210.0870208740234	1298.035522460938	364.3651123046875	-493.4789428710938	1288.196044921875	550.96923828125	-487.6856384277344	1255.029663085938	628.9031982421875	-198.5094604492188	1546.540161132812	125.2475357055664	-421.7322387695312	1179.519165039062	642.8208618164062	-193.0962219238281	1237.306518554688	529.4976196289062	-204.2085571289062	1158.630126953125	546.3531494140625	-207.9129791259766	1338.731567382812	502.7383422851562	-484.0771484375	1171.569213867188	501.5392150878906	-199.0439758300781	1376.0546875	369.0848999023438	-485.9635620117188	1381.728393554688	270.6915283203125	-472.0148010253906	1082.997192382812	425.7133178710938	-192.8369445800781	1493.27783203125	82.14378356933594	-469.9834594726562	1058.503051757812	501.7809143066406	-195.4124450683594	1329.797485351562	51.3043212890625	-347.1220703125	985.9794311523438	393.7079467773438	-198.7680358886719	964.9103393554688	469.930419921875	-205.7791442871094	1363.055908203125	87.88734436035156	-439.0730895996094	794.9227294921875	375.2177734375	-230.4739227294922	739.4802856445312	188.247802734375	-254.2408752441406	807.3506469726562	427.1271362304688	-292.0272521972656	784.893310546875	411.07958984375	-329.5558776855469	771.6992797851562	434.1122131347656	-278.3128662109375	1318.835815429688	39.61566162109375	-399.4695129394531
248	1.235	1212.491577148438	1458.204223632812	-535.5413208007812	1295.591064453125	1444.768920898438	-241.1086730957031	1225.306274414062	994.1790771484376	-514.9957885742188	1277.521118164062	985.7413940429688	-219.0538787841797	1289.632446289062	950.866455078125	-503.9164123535156	1319.730712890625	75.99010467529297	-368.6929626464844	1332.971313476562	939.8836059570312	-249.1079711914062	1174.619873046875	861.6533813476562	-512.321533203125	1187.073120117188	885.9711303710938	-197.3271636962891	1155.49267578125	1026.599853515625	-351.3086853027344	1355.295654296875	664.2560424804688	-518.8115234375	1315.18701171875	262.9322814941406	-475.9467163085938	1277.272338867188	640.23095703125	-514.3880004882812	1386.702270507812	569.199462890625	-489.3601379394531	739.4406127929688	272.2080383300781	-209.6775665283203	1312.91064453125	360.1557006835938	-492.9025573730469	1304.518432617188	546.9699096679688	-487.6366271972656	1275.196411132812	623.3662719726562	-198.7664947509766	1555.533935546875	111.8449249267578	-418.8674621582031	1199.445068359375	636.3532104492188	-192.9445648193359	1259.562744140625	524.1389770507812	-203.3285064697266	1180.639404296875	539.3666381835938	-207.8390350341797	1355.00732421875	498.3359069824219	-483.6369323730469	1194.166259765625	495.0097351074219	-198.3620452880859	1390.795288085938	363.9253845214844	-484.7547912597656	1394.5400390625	265.0227966308594	-470.9630432128906	1104.963989257812	421.3051147460938	-192.1698913574219	1499.222290039062	71.62307739257812	-466.6091003417969	1082.53564453125	498.0067443847656	-195.6370391845703	1335.035888671875	48.83489227294922	-346.2902221679688	1007.589050292969	391.7520446777344	-198.87158203125	988.17138671875	468.5035705566406	-205.7277679443359	1370.386596679688	85.19176483154297	-437.982666015625	816.620361328125	378.7186279296875	-231.4195098876953	758.9744262695312	192.0594787597656	-253.1732482910156	829.3165283203125	429.5719604492188	-293.7699584960938	806.648681640625	413.7189025878906	-330.63623046875	793.64892578125	437.5132751464844	-279.9566040039062	1322.710815429688	40.65511322021484	-398.7330322265625
